<mxfile host="65bd71144e">
    <diagram id="HIP3nbAZw_EuaXWnEj3U" name="Page-1">
        <mxGraphModel dx="1086" dy="658" grid="1" gridSize="10" guides="1" tooltips="1" connect="1" arrows="1" fold="1" page="1" pageScale="1" pageWidth="850" pageHeight="1100" math="0" shadow="0">
            <root>
                <mxCell id="0"/>
                <mxCell id="1" parent="0"/>
                <mxCell id="16" value="http://ics2o.mths.ca" style="swimlane;whiteSpace=wrap;html=1;" vertex="1" parent="1">
                    <mxGeometry x="60" y="40" width="803" height="590" as="geometry"/>
                </mxCell>
                <mxCell id="17" value="&lt;h1 style=&quot;margin-top: 0px; line-height: 270%;&quot;&gt;&lt;font style=&quot;font-size: 30px;&quot;&gt;Dividing with while loops, with JS&lt;/font&gt;&lt;/h1&gt;" style="text;html=1;whiteSpace=wrap;overflow=hidden;rounded=0;" vertex="1" parent="16">
                    <mxGeometry x="20" y="20" width="550" height="70" as="geometry"/>
                </mxCell>
                <mxCell id="18" value="&lt;font style=&quot;font-size: 26px;&quot;&gt;Enter number to divide with the second number:&lt;/font&gt;" style="text;html=1;align=left;verticalAlign=middle;whiteSpace=wrap;rounded=0;" vertex="1" parent="16">
                    <mxGeometry x="20" y="100" width="450" height="30" as="geometry"/>
                </mxCell>
                <mxCell id="19" value="Number..." style="rounded=1;whiteSpace=wrap;html=1;align=left;fillColor=light-dark(#FFFFFF,#000000);strokeColor=light-dark(#000000,#FFFFFF);" vertex="1" parent="16">
                    <mxGeometry x="20" y="160" width="280" height="30" as="geometry"/>
                </mxCell>
                <mxCell id="20" value="&lt;font style=&quot;font-size: 17px;&quot;&gt;Calculate&lt;/font&gt;" style="rounded=1;whiteSpace=wrap;html=1;align=center;fillColor=light-dark(#FFFFFF,#000000);strokeColor=light-dark(#000000,#FFFFFF);" vertex="1" parent="16">
                    <mxGeometry x="20" y="322.13" width="200" height="30" as="geometry"/>
                </mxCell>
                <mxCell id="21" value="&lt;span style=&quot;font-size: 26px;&quot;&gt;47&amp;nbsp;รท 2 = 23 R 1&lt;/span&gt;" style="text;html=1;align=left;verticalAlign=middle;whiteSpace=wrap;rounded=0;" vertex="1" parent="16">
                    <mxGeometry x="20" y="360" width="530" height="30" as="geometry"/>
                </mxCell>
                <mxCell id="22" value="&lt;span style=&quot;color: rgb(63, 63, 63); font-size: 26px;&quot;&gt;Enter number to dividing with the first number:&lt;/span&gt;" style="text;html=1;align=left;verticalAlign=middle;whiteSpace=wrap;rounded=0;" vertex="1" parent="16">
                    <mxGeometry x="20" y="212.13" width="380" height="30" as="geometry"/>
                </mxCell>
                <mxCell id="23" value="Number..." style="rounded=1;whiteSpace=wrap;html=1;align=left;fillColor=light-dark(#FFFFFF,#000000);strokeColor=light-dark(#000000,#FFFFFF);" vertex="1" parent="16">
                    <mxGeometry x="20" y="262.13" width="280" height="30" as="geometry"/>
                </mxCell>
                <mxCell id="25" value="" style="shape=image;verticalLabelPosition=bottom;labelBackgroundColor=default;verticalAlign=top;aspect=fixed;imageAspect=0;image=data:image/webp,UklGRmRIAABXRUJQVlA4TFdIAAAva8LjELcHt7Zt1co63/990RcgI6Yd6qJTh+d6F1YEHEmSXCtVX5oIkwtzUPyvNTDlOJIkR8lDM4v/JmAc/yFWH0G2TdHuTzGTk03a7EnaO+y8QBCEg+BAOBAOAgMhIA4EYRAOhMI/f18c/l+aY70mvnCFELKGgM2CgABEWMF/7s8T1hCArBBY2z855fuVUPsiZCDGIcPwjzD8IyD9P0Q/EAIyDkYGYgohhzGHsISxACHMQSxgTJGDGEMQiIB+EIg8bKGBuzjBDlxyL1vgl+2S/YLNwD9zbN9+4IQEwIGI9YYEEOW9Ipb7RgidnUAsx0Ho1guCVLeKEA5XiJBnK2S3W/7det0OAhJQ3irifD0QAcjXMREfnxdCdauqWyVU94qo7pVQ3aqH000A8XVKRHlKAlGeEiHACQn4OiZCKI/p8ecjGYJDMiAFBZIMyVBYIIVFMiQDEh2SAUmG4JAMf1/G/R2BdwLx9P0llMcEJwEOEdZh0LaRpJg/7NlPdwQiYgL6J6zMyF2Lvg8vWlovPosrYxYsckGll8hVhQd75IUdDlqju1BWc+xH5zo3y3JziD4Kd2u4rm172zaWJU/vvfdeFYaUo3gsQ9M4vffee6+7973PYq/oYHrZLWezlpWz6uw9/6H33sf8FSLq970f8OKNnJi0Bb4fK2ASQAjBQET/ZdG2bTPSPFRCLpEe6tFcxJEv3QLAOHIjSfqqe7Z5fzaW5LJut1p3Gqk1d8u1mmZqZg3Jqzq33nvvvVWuNx+QASCTpormHCuqKwLISQYjOhWM6ShzEf2nRdt2kEg6Ke3BVuvSEwPCSwI3fD2H1OLQrZnHqnHsyvX9VvNyczTyfH+jXnBKTrYW+1XyTNcxzPcXBhk9dnw/yQTEWlXTz0OL3ccExmX7R1PK6VNm4iOnmR7p0tJHSg9yKZ9nUqPcNwilfF1m8mMY0cm4YcT5IymJ3AMU+ymF3KOxO5HpHo3dWeTZbtDYnbTK4Ea5xIXDd7v3A9O73yXQ1WsZ6Dgf4cHoQY9/gikee787BfZ6/TwDH+dXkVDiwUu72B8Hs43MIRD7HOWjnuAQDwjivuczm8DuQLutYxPU40RxzwcuXcQ9g3mcKO4ZL9143J0DdVmepS+Oez7Mhv3IDgenI89UMM4vgtvcneVDArSYmrER2Ev0nuA27hrwxbC6jO/eu4K715WZJdBc6oFWLp4qSMeB51I99x5XBuByY9WjtRLEHUF9s2U7DjyPIvbgccE3fj9opoHbPNJDcyHYxu8TUT4LDQ8sh0FZmwTVo7/DYwK48CjL0N7cLXg7r8gyxDf3ce8goLZmyLMM9c0DXXt0MLWXZf4TR5AwwjKgFudhv7mba3cOphb/zdCtewVYi/oBem71gqgNA81dXA8YQG0oaO7g1kMR3WbZJPBroMeYbrNsGvhQ3WalWlWb0uni+MZyvXvwm2p3uGXdWxjqCL6OtMx8MC5TpNJmuqj3G6WXw94gsEh6PvPFyBX4pVKLOCBJmdcLNUf0wOBg3wb2yFePizweSdk6msrcqdv9H5gOLkhYhnz3QKpREtAjX61zVQ57cyfrTt3mD4uFb5waPPXkAnoEaS2tSs3+QsLv5bmADWUe636df+DU/g3mESwqyXvYSaXuJ+ShYusyIbzNsqXv7OV6Tegudvoilp/cc7kMtHFFmd/GAtZ4RlB26CRxs9OHH3azUU2QldzKzIK5zJWlWrsPu5O7vwD372E/ZY9YenA4IFZT+G/k/rTr/o1U3tb0w/Fhu/2Oe3AJ6W2W1SD/yV/2+nd/+NOS4zPe41/+3X386z/941T/W+Yt/uFCAETlU/Hht78+gt+rzuziKW/+/N8oEH/1H1Ljnye4jer2l8DutZHZuP3iRI34W7n+boLeuHg74F5XZDZe9/mJDyr/eoLgeJP7XjM47e0fmUz80N9PUBwfc91zHU5bTSw++NqXP8N7TCYzmfHkJ0qMJ9m/QDH/OpiKF770DQc2z+G6MYC1n32joG+ayUR2NV9RIf8wHpMJYyue8cpPeGwaUsfmon3LPrMKHibPQxm7mFtv9NhcCeKJzO0nXsqshrtJ85g7IhjzBXPP0vUgAJbnvdncPkOdueeRstyFUYxnn/D0PBvy11Lcbm3VoR8jx31ZBtQ1twNaazEtMxvvNpkpNffcZS7DAxjN+ILJhwE9QytzvH2j8LlHvWbKiMZvmHTjFS6bVHJ11IumfuLnHuWaKaNaa9j1NiirY7eyzHEsr5Qy9yg1wH1ZFtzdfA7KguTS1itMy45bCs49dxT5PI+/K2NbNfLSmUvdoONS13vUnHseKMxQM7rxez2t/F+VWcv+A6ZuOXOPKqUev1sM4V7b9T4Qq/5LBx/veqmyc889KwHPdphR7kWmFWSZ21iRuEnkxa6WjLlHjTvzqWbGuZangtmGxO3UJl1qzz13d7+x1rBbAut40g0AlTUr/8F8uI6dB58P79ctj37Sb45mUMALffGB8XD42N0Yxg+6t+ktaYUYa+KGccmH5p7wQO5y5CijIbmoPcOSC6kjXmZUZClmDxbkQmrhZUYuZBaelvRCZuFlRkhK74XL0KOorhSpuDrI2UQ1yjDmxM7/f1vf+E0pfuPG1/53N/5z2/R63hQEm0OEmTKXB635wKB0YZylljm/L9Pm3cUhs3MNZXT/W8m40DsyfOf7f3Ix2/VvTtO+nsbMRjyR7eQNxZ6Y1hxlkKJAXhSXw6NMUoqyugpkHjuPZihzyjQrFTqXgfmnf3ZUmOaz9P92HyPLtMTk3blnsIrHgH8n7y6JQyBpfWFI7GzijOWHlx7IwfwLV7jTLzl1bEcK67jzNc+N8YrO8zAqXpsAcn9vel85krfTAqjtpe9GSBgoXZ0xHitFKPWeK1XygtcRqZcLQ16nkWFOpduy8PcXbnBxwJ2wWaea+CFL4LTQOcu0RgKbrERkVXjq0ywnmVzTRB+2o4nY3PO+1qWVFbOc6iHWmio9GXKGOJ2H6PxWGyXYMcFeLC8MeZ0tzNlHD28uNkGYf23ZAiOKrV4xj8Qr3k69KmcR8or5UCxnV6iZpqiI3DkCE/FU5fd1waIU5sxmrdRBZFxLmGQ26rkx4GdEEVdcGNI6tzLE2ddTD4vIy0m/9Act+AqAl5n5bcmKCF6yRIDVOB22EoBaip3zNE5MVycJDL5l9Ot6qu9cw0qpFJUc8qNgwUMIfTy+MKR1HkWcgG/8lxeb0H99+m/aTMQFwIqtxAJgbu4RDogLQBTzjiBIYJpOMkgW6AZl9G4iskBPwfpy5tPU9Hu8OJIWI5d4s5R8SVtjAb/xl62eYv5HAHB+E6asQBly1wRrAwRk8rEG9vBXJQzKwQfUTAbwWdrHmXpAoq0g0g6OtciwpshyxHxp/PqfPuMGFiPnuiwlQx7X8UuQ17LiopdGzDqktJTc9Bh6o2N+x9mNmF1JEQJzjxDj2elj8B0oYenJFcnFKXMnOiPfEfelsWYb5W2nUnEJgF/SiKiUXxFln3a4MDwSEdc3wh8pmTm3eIyB0JK3b6VONErHAwN2EWiq6Ynyc5iAOR/AeoJ8a26tlFhTCUqHl8Dv/BtupvB1whKo1/mkJNiB2SsRDWoGz/kES236pmSR3ESI9EqHTUhmQtKYd0R+BsKA/psSALIt18fJRFuHRynxTKbxKj2rJ8aX/0HVoY2W020x5Iy0Gdj8PoYoUfQrvmTaLqbbMUPQdHtM1pCGeTgcrkJJnlpKF0POA5EF0dTRFF4DvUk2pDwwzciGlAciMlCkK0fpqjvcqb5VRYtfEd7mi0fCkr1phie2u9z0hTYkzwfEBxLLFMWiDD+eMWQ8cBRT5JLTPiT5W5uixTOkm84b1l2sg0UUfivr8jJT7Pln5KhmAM/rQJR4AEJxxDhQ5FC8uD7t6KLTTKHyYd11BVbHlcPinTHB07W0TOCnFlHsV5GGi2pMmFKJXOW9YMspiPVIrMLYgp4McX0A5zbq8mx9kpmNgHjxvawjUSeGvBui5HyA1fGLdVQCCn6thBiCXuwQXWwRxR4vB8EV0BcZpvBOzJUFhpMn0Za3Mk4gCuQjB3OwK5SqzCMVdb7NmTk2zL6RQP0aSl2nxFf6Q56URMg5M6N5IqPYYRjUvlwKouvOjXDFyvoq/xEN93mZOTjupatTL75mK2NUZi6dUrOURowcMQWhrsYzq0ey68e+sXrWlopiX6Eo9tOrSO04VlzhLOEKYxzHcLgu6mkjGSQ1ScWY73QGqYFiJ6+YhFCHgu9yyVXWIquGlUo6As8k+ClaXkVaTlXmMiUVFUgFUvEm0OwbT3Aax/OGXvJV3kQnQQrWK225EzK2l4gxN6gwp6kWzjINoY6CwXoAAs1TRYKi2PPFI77gQk1GYFqA91s2relP5IQuvuYN2yv8ZBwEbrRj3sbFNzGPQEUqEGNeLSXzVp+848IFkB0Trjx2UNUJfQLXvkhYHcXmnovTBY4n38aF571IY9aBi6VcPOILVmoTWSTmIK5p8Xg8O/hO52sZq1VR8A0ii6CYODLGPEWlZqw2HYuj/w86IhZeLFZHkaCOANQh9UcTCjRnD1cSw15DVQ4UBm9FcpsdgO94zjBsoogrC5wPS8xjxOmA/je91NUNKqqcuSJj4tKQOG7oSLnKehSvDhOjZAesjghgTzgE/SwQ/5Q2caKi2NF8FP4qUjs8ojTwObacRo6988xMS3C9GSuwhgTjCWcR0ZvQn8oCskcV/raESYuly8Qr+LFcBRBjfnD5q6HrC9hdexVZt39EdVstGx7VKoygepIl3HZWZLBImigqqGEMljqHM8hxAT6NeI51819UUpKFr+QriL0aMeageL1yCC84Uh2fSgZsYaEUxUJ2ojf9TkQRxfVhJ2J5T8TM7MMf4LorWcZNROep/B6HkYR5FWPOPJOs2S/VU94OwUsxDBQARiIDMwdFkGkBCrSSORwVM8upeMiycd+9IfN0ii7VXJ8xmsIHzJSXMVbW6rkBYtBviDWDZFOnpbjZfVmZs9YviRXBN+d4LDvPNw627B5RXoUeBrndchSPQDkn12SBaZYZco5iEC8kNTymqceM7PPNg027c05UnhGxiF5O1LMhvZwRdzsxc2G73jXWItu6cPgXfNWg4QbCyG4JstqqURYpGbHV6ywWUcH9hkZqrMCYnpFndmF2uaRLV5JkUtk612khi+wxoWW3BFldOOUCw0sRxwC4AT2XGb5spzSkhViQ9WePq2LLrB25koV8xwzSRGIu1FON5xdDuyXIitP5kJnAigQMbBFITjdAykMEHwfPWy1h9tjWO184d+4/Ux270Te3xDW7Ey+m84s1m5LKKpoaekG7dpCShN7J2oQ18D5q16caZm7C7jts4KZIpR1fKYreGMdU2HmXnpveM2o6XP0CWGpS0p7GsO1wGHS+7VJvxkDgdHcaVCB4VHUXhurNnRgM7P+TG9l9q7bLSD5dGlGXWRiFnR8yy0IPcbrTMAh9J2eDdoWCiEwPant2HFDQeSWDPiuBwLTSsW/YspYMfHKi0KD+JmvRPG6FQ8NBq+GgyPa81W84qO04CcTLEdLU434J+pdxQM6iQO3dd1IfsWktiTJ9HUNlpXxRT/drHBoOvn9NTmAscF50dTqdgj+pyPSsxTPB+BmjNgeHPqK2rq3AmG0N+M//IyviCio0XAII54XEmFVKzExHphtxTHFINSzuI0aWY8SgTKVL2MtM9KqTomZPbBNDbm6MHi3F9XETOyDwP33EumVIjMk14JlnHIq6GByj0PApN2HFeC7gi7fRwcj0Knq28hIFnUOsmIKn/V1f+KY/aFjOXAZjKr3DTv7sT69SU6giOMA8+0b4EUSUo1rRpzAyfZgW4A1g0HklFncv1L9m11z7ilbgA3L7K79xpcLjPPELiFbDwfM8LYsZR5P7ROizA7WVR2mKmTtzf5BZKs3hSzvVp5yPq/yL/AdzrI1BX7GGL9e7GMtf1B31/fK/uQmxkqHLtd+eOvf7XdDV7U2IY+jS0/0Tzre/CNLyDonfWw6Olrq4z78F+Y0bEBto8gvrL+c2O/rjX0TpT28+jPCFnW0wm5sPTYRx8RRE+oMbD0P8+TewE29R6cbDGqY6PB5Y+RnfgN5ollEag9Qc27OmJjUbpKa1Z02+Z83lpKYkNdleNVu3WPqupzdySk88xg8wZIEoz/uLx3gesqDvPUPdWobjt/lvb7nFra4xSM10b6bP+GJMJhcQF76yvX0IDn/xDF+MyWSGuJCwLy7S6U2bhqQmJzXVnjUbpKYmNT1SsyA1BqmZkhqmNQmRGZrfgwqRyU2qPWjWze+FjMgsTXpEpja/n0Ais2kyJTKGeUqJzNQsoTErlveGTWOY0gwtahKTWyxITGUxJTEjixmJqdkSCYVZWFUUxrAaUZhVqx6FYSvDAebyn4gZQxszB6jLfyJiNNkm1mwhL/+JeFHZqZDY+6t6gBdLOyMc+fH3XcbP7POfiBe1neM44v09kM1R09uwY2CJx/dANu+fPoMYW3ZmWCIg/4mIYT+xlyOJ9/wnIsaavRaSeM5/ImY07dVIIiL/iWjRsmcgiYj8J6LF0t4MSR0i8p+IFgt2KIi/wRg3vQ0HFXGZOaiR45fmd+TcHe63KLPGDgzkeP53bdaE/QVlGs4pOEVOx6+sCpx1VIys/Iz92Ppmw3Fm6egIdvzB7E9Is+moh57BftL1MyD5TwxghqMt9NDdQTSQ/CcGMBepbk7Qs1zvF9/hJZT8JwavNRfT21I1n3a0hqKBs3hAm2vXQBXj7PH88+ft85+IvDyc1qrmj2dFlFHN7plFsbS5dk2IzOD+it/ZPUWlI1RpuWCo6gyHaLRlFN8gc+2amX3/EzFlg13Emqp5MbKAINOWfCAlMtduvsCFTjBl4UalJJcpB8YAIwf9tPsmQHKlPDjnobl27h64a4fx7r4GSi3SDPqfiClbbtRqeoRLwSDia3A52UkJGIlK2DAvmYIC2B1ArKwZSD4DnrTNoP+JiMJuGGpiLQYsC0tuRWWy/BdjDhAiZ30fZe2hPi0WLUZ7EXupyOrEk4a7KS7VZGQNvWRpB7MBDyOAhu1E3kCMZCXZMW83YS75n4gGLXcqNW1FDoF1exfDARTlFGgBWul9/8p/Ihos3anVxGeSt1HCBQFN48Jw1hGnOvar/CciwsIdQ1FWJIljgkIJao1VBFkgrO4lese38p+ICFvs8gE18UREjhGsZcWcIklmLjCLd0oUfBhmtNT8+3z8hTCT/8QVl1qK6ms8xoiclFoTWKXDEC9zD0mL85ixtuYcU58ML/lPbLBLxxW11ZIYsx1ExFkMtCGVYIk8cAJAyYlZPw4v+U9sujVTMZ92pEdwHr7TAC1rAjoI01OTT/Ap2GY4pRi+sykG7RCT/8Qjrqe5AQ+wkBZfda/Vp0JQ/hNr10Z+K2kd+1z+E3HAcM3wOTE2YtJTfpf/RBxYdW3mo9c6Zf74n4gZHia6icv8JyJBw4Mal/lPRIIWCq+DUF/HSLL0MtVDVOU/EUk2vRhhKv+JWGIg8BppdbSOsWTmabLXEJX/RCxhT1pBDMBt/q2+1r1E7gW646Iv0+a+eW10k1LvLxGXUgqA5ylt/Gwy9MbAWP4TO2m/TMbXnpZ7ge724EBrrJprJKZTIvZzf3TxhT6QHZCCuLbYyN+ZouXNbA1h+U+0zIVtuRfobm8McuWauTLw7w6YgwV7Q0oUFZouGiNAttIPXWBFbQSMpjPFyON0N/GV/8Rtnci6QHdu4oXg8fQygoNBkfWm2y7nriuwR79ocDUaTPutOpRgXo7EZ2JyAotsIPP5bt11nrlCo7gxLnrTE6O4cfWoParxlf/E8zru/j2XyLlAd41Pj5nBD76RebXKWudcYI9+qcHVWOohx0MoGyVU9Wj8+mSRQw1aJQBNskAjfy0bMEobBzyaLpSAxAGM4sbVw/Bohhou8584Pyh0WqS6l5uJv0B39PDYeQY/C/L2FY1mM5fMhEe/xOBqgAy8LdrV/nHujTmVFVcS4NvCAtY4wt/fIfNIrfImbaDRuunqscVeO/HT4ThDFdp0KSGusVYCEH+B7ujhsStxx5TkisJLpiA8+iUGV4P1STd+13I9IDF0lBgTSYzAUdwoRqCGyO6BBzCKG1cP9qoO4PWwssOaS+bUsnm02At015gsyHBGcGbnaqEtkxAe/VIDw/BB1iLgL4oRSgmuFo6xubp6AxBDsZMMUo2HzsVWQxQxV46GZyvo8p/6nHke7Em9QHc42tgyeEUFf/bjwjMN4dEvAew29QSqRglq1ceKIInzFCo4oOhxw3UEsPC9cjS9T3mOLVeZF/J19HVSL9CdQcNjl4DZvsg26S/JwwHVpOxSGfCLPfqlKGsd8aHlZ8/4NNIl8748IAXI++bCgxHgSM5QLO85LadcbfyVouVdjSumce5sd4apjqVeoLuU8fDY8QCFFLA9WbLJzyjisUe/FEqH8+eIYAaVLR6hAsg2igQ0AhyBwigdL7mX8ZViw7sV3PAwM50eyL1Ad8wFHW3M7UZfI9mB8OiXHFyNwQ7cOlmbmhQQ5v1SI8Dh4RwSA3o38JVikwV0YorNLDRHyjp/Q4CakN4L2ZYAM0IiZNpzMrImRE1GciFmZKTFYjqpyEiM41RkKcasJCKFoKkfERFDEIOITEVNfklDZqIsSUjJohgkpCFu+nMKkotTU5B1cWYlARmxwE4CshTIICAFC4ySfhgiLenHVKQZ/VhlkZGTDxbqGPUoxZqVxGPIYmNJPHLBDOJRseDIace+aAbtWLLoKEnNknQUws1Ix4KFR045DPEM2sinHThcEk4+7VIJloSTT7sVCQzC6c0yIic1PbIxlGJWUhoeUY1cDoPUcE5qaqKxL8mspDSc04yRLAbNWLKsKEnNkmTU0hgko5D3as4qtCA1xtm9kJQ/HjQimfzxpPKgKX88SISm/PEQmmsp7cucxHrb5o+HzCT9acxU5rwu2kxLPOePh5iIyB8PheloSwwoqQNb+eNJ0Vu/5Db/BRRc5Y/HQB9c5Y/HwF4HlPzxEAnv+eMhqm0FKx0RmoE+yAlt/0iFTghtv29jfQOhuaR1Tmj7s7xBJ2FeGMkfzzKY+Ff+eMIpv8ofT0gVXvLHMwowYSR/POu+I7muc76NFySXgu/kjyeE6LWISHMTHCKXQwjJH0/LZxgRPcla5PAcPMbxRVCkzGEkfzxNnxHlFJyA59vzYCRcBH3tW/njCRMq4n0LTs4pvPMA5JtdclmMc4nvHbsenWl9f8/3Diztlbr40LkvaD01J9UuZOSPp+EvtiKlb/JcZCdGsUO+2b3ATcGcASmGq6h0HIM8tR+BunZhmrYpX0p14jv54wkTOIvIIm/GBM2+2Q1mIifG+BrtNru+vrmj/lSkJmlZmH4nPixFjPmQ90TMDPvHE4KkLLAs9I0M2Dc73sGskqERgAGe/fNHih0s0PYTYYZi2BS3DP94fGe5XhU2p1EkN2KRuQQkBr7TCiz0FcRuT8Wc8o8Hoc591RLS5h5YPCpa+GZH0/BOrBDxFLcU/3hWockLbQ0Zth7SUQxNvtnRIFmKfh7cjWTKN25u1lKlNTB7JUVxaLtLkgbf7Erk006BeS1rz5wGxRKuMwYPnWgpmEfhtuEfzxYw21r3BpYTrZe0XE90jNCA0wyNtGv0zY57kYcciPeeAHWi2EbRDwlsdYniUlazsbpl+MdjABNpHUudewIsjhdj+HKRHKAvnT30zQ77DkuRlAz9CuTsNOB9uPsRbNfTEm4Z/vEswCmk1y85hNsvGo20Y26QgzdnkPbaIQ3WY/mJuRrmp388gl5bcQ0chzgwAz1FY/54WNnnYt6RnKWLxJ5rpRX48uKvAy6l+utYzB+PkVieRfHteL5/vucO5+3F0kguCf9kqtGMHcs/uBH19c7YvFwPYfnjcVXFs29JNucim3N+vgLcRVyhDJ/nOVNtNyLk5Y/HyZguPKuuqKl6E5QGfdqNn+271JuCgbFAg4PBNcFXXQSiatVd4YzxjEwH4ieY7TOdq7s8xXYHhRZ2B4E89xLAkJc/nkoWIygbLGadeM5TyUN0fi/rmEs2WU/sYRV1mdcnmaHXQA9YlGOWnU5RxkjRQh8C5MPnDzkHHMsK7A76CpihxMalhWnjx6g7IYnv4dgugrQjMXOJEpz88RyJiM6BBmxUj1lJwVHGRZ4m6ErwCAQdj6EoiJKUM3Ih6K0Akjj9xhBbhnaZmQOcoQ1ld1C/uzw0hniuTGjctwNeigDKH0/1gRni/wgkJ3C/YYEBwQ5jtEBeQgNxaFbQMCizBu9HULDaEm8RhN1BO4cUphH3e+MvxCDPAQyg7XE0jrGWPx7n2OoTkg1DBTgbUzl3l3mXWxAgOzj7gifg2wUS3Wx30Imir/W+D5qnuht5jL388aBN5JPMdqMWr4qsMGsm2WoDsmVms06teQ0UjSBIvaPvdi3tDqoKiOfRB3BElmqWbeTlj6ebhvuUlhLYrO95L4KHTcEjfQSydEIZ8qP1+Fla1g9X+sRzsYJrhg0AF4JGEWGlVCqmpN1BgxzXkl832h1UQJQBrF9yTczzSusIb/njofYvi34FnQTSO4WJIqCoDiIOsVX6cpnRgiypSFYRGrhHWxPtnTzCXdpt7A6yFDeZ0h0E0Qq4EX3DUs3yAH/54xnsUCABiT1zSkoB2t/sufDcqGGwnhbiE+VgkEf2ZDHSR+/eQPNIicxNK7eBnmMrLGN9YFe3x89dN+n0ntXSej6cOzDU+iVaD0IBtGzTWrKfCxwD+uUqrU+GB1xY6+fFuZ7DMtB637oanCCO75dlNbDBbtDd5QzTQutrglqReoveIOjzJQBMnmpz9DiopdpjJEGfcwho6yvywuRUO7DxGY/BIt27dOOB+UTyn0nOzOjrvbiQVlAGg5Kfm759AK1fgkAfyMDVBYjDzXwdAp77+edHChzhjef21C6w54VcbJAoAybh2uRRJDfEAyPP85286HwF48v5yRjHDMPN7zn1piEzG4H7xDpddo656KDKJ++ggNQb4+YEWUixtJLzYTeNk3xYLfRpVjv7TY5Dll7nTFdNTHKEFuQS84ZBNLoY5px1Au1HASFzw6sgMB3j/AxvA5WuedpROobQ0cGwceeZ9yXAdsx38goYgdniMRRR8tYlpdJydh4IHIG2COYFqygtktysdQRDAbMuciRxirWMxJOP0Wyl7OoUNzBW3Ynfk9S5+eH3E0BFZ4K/1rnU00UCBVg2j0FeXmAYQD5Gk2SSVXrN2SCBD1Zk6ucEC1hO8jGnCEL8rnPy4mrOAWFtFPmkCeoxEkIlMwUzJ72aF/6MgeJEPBtodOU1/xRYzDpwsZSDdhjxFLHke+7XoeBq6QnGtQ4nYU5QA6vLtIDtNR+JpJsjfASd42yixWOgTbxa2YMGLZIRgKD0PDc8joNXRzOK4a3IwQ2PwuPnMXSOs0kLFuSbZhbGplsLBCYgEAWbzwvW4X0BsXMi9voHI/Xmsha4OppGxIJ44DsJmrAGi1KndcFB1nwnQQOWFGuOQFvhdxOsQVuGDFvItba4myBD6boxZo7bOLEKtd7cXYWXtVDrMt1RYJCaTVD15iyV7iiooRa5o2AJiTsLdx2sgyIy3fg7DSqJXO/a4WR8h8EQVm/7VouI+9DficHMIYMWyO8oWAM4WBW0yB0F2Qo4ozda7i5YhaUwYDrbuwq2AEnPwSP6KDHfVbCAtVxPJKuzbri7YBMUfXTAzHcZLCEtQ+4L5jsORpS2zj9bh6GayId81Y5dUIUmmDqa04YYzTCfTzuPK8dgGLQc8/hmuwjn+bRTBlfDHYKfdt62FiS1ItkKHOPouhuKIjpDGlahKE61JXZiwmAAUZH9jZ2O6cImEDsRXV4dxwPTcfaJSxLRJ+x+sg7IwhKGpUiw3ddgSRZGMJzRzQr2dY8srMMQJTecnSVZaEJRNnw/IQvDPWsyWrMKhI420acvdKIMBqnZBFlvbm+QJanZpzVYzXEcUjTRmuM4nBjiNcdxOIHXHMehRAZGJ7KLL5xBQY7jcGIGxba2jwgDOY7DiVUwX67vOzTBn+M4pDDA9I5M++idV/pgkHQ34gr8HMchxQLMF1yHK0vJlZbNde9xHFZsQvGBOCxgzbyTk2ve4zi0WEJhKFsUxLORfP17HIcTI3DvQzyIJMX173EcTqxDYdF33iKKYz6Vk+vf4zicaIEZLIqUI9ctRIJ6ariTiC/JmmDsa+o4xI1M+W6CBrD3IQ427m2tre4oWIO0zj89hscC5Z47CjJw9UvuOFiFY2TewP5i7qQ4R1u9dxkYcEZ03YK0z6rVAohHkdOD6/VhpH1WrTaBMLJO1+tTsPZZtarBrIc9uxPwOE5ABRMw62HX17fHcaiyDqXIRMz17XEcviUrkjcGpGv2jQqdoOrz3gXDdX7simNdYEoDey7tFsYU9K2HLXSCKBmKcxyHUEVfps34huJxHCKsQjHWqI/cG4jHcQg1FhENzynn5uFxHCoYQETRdbxEdSRS3jg8jsOFBZgRjfG5nqerRRDkOA4XNmHoZUrsBT+4DIqOKRy+O/IoEaOKcc55HIcMNax9O1zaOeUY64aGX3BKSY8YIvSE/+Q4DhuWMHR4ke3qu8vE/hsk0adzsXzus2qFBuswJIFnSVksZMqXw9SyIfWObWfOYvncZ9UKl7jQeucL0//saZ3IBGw9g5bZhQIYa+ddSp0ZJ/KUEN098SEYm97XYA2uxkNZ9w6+zid3zw75CZJ3FM5xHBo0oW2/tcMyFVHJjs6ohfhIadnJSw02FhIeKRrJDU6BnALGWoA8EMhGxOlq8SMpM27NNdXfVCHHccjRgLK+Iq/M+3ZgWdZgpxLIzFEkbwaMLHoTJYOt1FlJwFRRXN9PRJGQJldAt8Z6kKlHsmAnWm/6ndYDvqR1qWqO4/CJOR8M5jlLg9KKa+B3aQh4MyuSGPbCsp1AsCRWd5Qmw0uVka1IVspWPIIrE0V3apIyVjXHccjjcQmdrC8hhH6nwYSMKWARqOWA0RfrFxgLl4mHNZSmBahxUcnJmViO4hVwxnZA5zgOUTJgKq2lFnkU8TWWxCiiWLTqxyMF0oJeBt4QS1WTSwm9mFohkHK1Mb8wb75f4sKKnxiJ2NawhnJ66m6FpHKDJiMmrnkr06UEGmVzHPcdxoVVH1FlkaI9WRZefenFGPAFJkVFlkUC31ICrARfKilafBPbSRugjtZx+ILTMbcnqXdfiGC2EVhqB1+mkfF2zOA1Y/AmmWlMgwHNcRyqGH4iHnF7UIuZ+QFt10M22ulXEyFa0ywLqnDeioRGUh2pkuM4zFj4gTbdajf1C8CWMiwlARWwf5C2ltoVzEgwko9FIP2duTI5jsOMTTVAiNHJO9hvQ5iDHseFQSJxoUWGeehxHGYspSt3bCMFjMMErEnOQ4/jUGPkp++txxfz1eO4X5rTGNcd7rdosA7ufRwhIsdxz//udyzxg7+g0cAxEJHjOP6V1W/x0NGEVQQbOY77seUWEb0b0OAix3F/MPsTYuEix3E/6frZIcTCRY7j/jLbpTEhAwcZOY77RfdzxUYUIMbzz59nXFhFLf7dbykNMzJskRqD1CygwUo+7dBgExi05NMOqdCSTzs02EBx71vmHCE1+7fUSm7a2SXmKFi/cakyhxfNYPzFIeCFvg6zQBOPuun6LByMtU5Eplq9MFoMznzjC8qiUexF4vGFspF8m6LQpwepg7kudCIw1epB61dUdw3ugur754vG0wvtJc8EDTTqJ8xdjkfBEpdqdf7KUcGY58P6RZeQweWqdC2gAHaG9CxvmO4RVEBYgwXmSMl+j6UOLTF380IH2b0leDLGkd6YU94qcvcJwoGcTZyPguU51eoOQXAaJecDNtD+cn7hIrSrPCghBmGcrzC9TIboDoAF5gNYohukZKSk7piklhi7eKFVPGIM6buizlkyU94q9rpPcEaqNTwOZuLyKFjeUq3uEhs1sQd6nMlZGaIIjdgD33kqnK33GZOQY4oFZYE50Hya+e2JKhrZIZwV8ZQhpO+KhDfmhLeKV+mTzJ22VBlWRXrOVt5Sre7JV1xXp6XUeGb1SHavx55Y2jKGNLxcViD7s1lDzcVy3Y/PHfLq1CUE6bsimhm9IrxV7Oid4XabQwSXR8Hylmp1T97qDBIycy+XXBEulae46LquF9AHNmF4ecAWmBOai2oXRZ8y2bbEGUeRmK7r8rQr2viuyNFQ3iomg76enpRrFZdcHQXLY6rVPSEMLqdQ6SNQzI2I0zWuoQwvxwAlZNme2+8cIHJUEN2Q0b4rErC2ndBOvwwRXB0Fy1Oq1T3o1z6lLTC4fGQoNvdcDAuc46iJbXzw7GJmjFJyDzTvHAF7eqFwgvZdkYDwVnE7ijlPoxDBxZGJPKVa3ZNtFNQ4sehA8ZHSMW4DVJg9bYH5BGo20FRzUWjfFQkIbxUtL04uA+UuPs/73sYO94n2YVEDsSlBSxTbCh2sJ4QkjzXjgRLZ5f2FJs/c6LsipWwwiG2SZh4auKiNGefIWOefbSK3fsleeRtnhVo/K1Rzz5rGra7Jzg61ujdSOM+nnVBbsITzfNoJZchGAfm0E4vUeh8jNcVZoWpSszwr1P7ZDDqWM54Td05zv5EgVVeYdNvipn45Hlf6BjfnNCfuWJLB1KkfwVP1Kwg2uFM1M2UuD873IegDORPpQm9izzPozlePJgZd43TGc3O9YyXuWJJnOsYIT9PCiKfy34ZiT8z5eoaUTGRPEX/57CSXp3rqb6wAiC9aZuxOWuQCMP/CQYYnGbn2DWPwWzB5l86TT6McDZkQsbgKGA97h7m9kOiB5SiSsRj8/YUTlKvSC7YjhXXcediRqFd0nu5MtDe9x6N87UpPdQYZTzsCZ4DK1HFneo8HyhkrwsAhl7Njxb6j10nKK0cDjTqWq+R1/TRmKwGXz9kR5zW/ENQFVvyQJXBa6JzF1Uho6Ex0yHKSGSeC7AoM0fPpSBYWCOAdHjlnogvUSjLsqTQImNmy4Yx4bit0LCc2F+mr2YaAy+fszAjoxkqvmJ34GtiRaNI1dGeiGXYm2gbjPGMCGoDnmhKW1UEG5hQ3qAtUyNSreQmsDfOIKIoz6BjwlsK0f3puPTsrOwIun7OzrwB4mZl3JSviBugB4M5EwxbOV26BkYEx1AA8j8QCZWjknE+nqAtUSMA9+q3BzCI+CGEn9nbCWPdit+c05/FYki7EBcCKrcRSXZFyj3BAXEBfJHbNjCV3XbeTfkR1P+nEO/EInXPODV2gUrOw1bbxC8qQbyO0z+tTuf1RJAu7c5rzdCxJN4yg7vzyJkxZgTLqrgnUmWhsxhCeQ1MfgSBMsKMz7W4KMYzWD5e5zwzxkMWVI8Ogni6G3bBZIGczmLhjSebFyLkuS8mQD9YxQHpZcdFLI2YdUlq2epiZmrBiPI/0MYVFI+eMukCF4J5K2YoOiGm45wROkMaGsMHmDba5IOhYkkSnyPkVI1g7BsCORF3fCOjDNOfzAsfJ+ZgJkBJ9wKWIaIsOiCDivk3Ppg3ncAcWEpMHjAKSfSWJR5FM1PG5Jc9N3YYmcJkVKBENagbP+YRW3k4C6rWUnJWB7hIVacIaYmgxms974lHKZ2O8Ss/S8sqdWV1otS9sWXL4N0SJond8xYipVUGfboUAuWLdV43Y5QvxMaEvpzd+CWE5vcEcjOX0hlh0AiVrH3nHT2E+pzfJHFwJhtpXoTqnN88H+hYl3I5hVTOlkelSfLG4zkFbTm+ej3DY99CBuHJcdar5kqlAF1QFZjn1BEWL41eskJLUm96T4qwjj4eRXRRNw5BLgAovpyDuPDEPJQc9GeIarv6Rl0wFfUFVIIz2jEBqVaxd1inKS+qIFit9NtgM2Ne6zC4nHuHjYeQsxVz30E3lThhOXom2vJUxPBLFjxycM1coVZlHKup8mzNzJCaCjJ9hkNo1Pn5Fx4T+pfo7C4hDoc7qqQYeD6PhHkajqyMc5PQmGu7PlpmD4146cKyAnr5kKogjWSSp9BET9GsGOgOL0tUJpZ86fsWRHMD9rUjBWUJVtMY+DHU5vTGOY7Drop42kkE6oAPDiSNZhFDHr9hJOUbCmVGwOoDQX2x3UeQE4sFHRsGQaOb3UxCX05tKghSsV9pSEZYtL5kKSJvjV+wERrlZgm6d6E+bpz4ykQIFvVf+3BtxOb3J65LZ6CnDS6CCR6CeHogxr5aSGR3JYmDOmap5jyeAWs97cUocvyLWb9g4BdCapyNOOyF5FMM81oGpXcF03Xt606tPixVQXTQTB5xIxZijI1kcwzF1aqDt8Sti/YF7qdMRddrieSDhByAuMEV4EWSueU9vcFR5U2A4cxoSxw0dKVdZf5nHr1hZz0XC0ehUaHvQEjm+lAjWa8/Tm1UoQOWqm0l8idTcHEwuY4tsJWfXnqc3FsWY3zRhK6DYKDrQ1h6yvoXYqUNKqHozflY4z66XhXP3zJQejxTXGvx14enNYIeCb57siVjmgI1sYSMrTRxf8mtN+G+wBMJ6MUxWLWf1tQ6r3MlK6b1OPL25eZJO1UQlksPrqKQYEehcywpo2AQT5QRIKMMuSo0ZxBkzhuyQymOF6M0uNKJwTm9CBol1gk/JMKNkOVS8A1lnXXAEa12VlmIrWIJh7lo0GBpECmxlQPMEcnJ6E7SDwb2KUpo6ZTE1CejSYp2sjUoTGTtk7OOuEYNORjpKaO9xhqo5vQkd1tZaDd61wq6tAwz2VMYJTqFD+0BNC0oc8tE+KFzdnN6EkN4BPJu1WEpPxnd7si4aA75PEc3xklHGrQi2nN5U4xvYUzKI99qhtvoMWKaPsayI3Kt6yVtY8AZRPMqajJdcQZXFLLGtT7MP6NwNjH3wlCoqI1uSFrj+mFMWCcxWlJwHnZl7EZeyALZaFukBfVtAKl+xYv5eP1RFb8yoIYD8uek9O2N8w2UuREl7UkKqroAnO7TtUm/GMJC81nDz2a5nRCxhHdSxYhdF0Mb6lAVrCFEEX24NvQjxl0dI5SyRa0DdUZdZ6ADyhR6i22kVhA5bDdeuUODIdBgMHAd0skOVDPqshM2L78TfXGjjBs+8T7R1UEYMvbG+os7aHXwDVSIbx8UeK0s+zQam/2dD8SieuWoIIAdbbzxvqVbDDTMT0tTjfuk8cR36LAqiwfHrHVlhLq+K8axfP1SSWCm7UUMA+YqZJydNrYaDP6nI9KzFM8GYanD8hsacvn6oJMWRFXFFYwB5LiExolbDmenIdCOOKQ6pBsdvYvSxb8X89PRGyo9nvSICyJsYcuNSntFSXB83sQMCX9/EYOb5RqWnMaC1YPCypxgTAeQNwHbEC/jibXQwMr2Knq28RCc7BLHwyhuqGa+uQxDw+aGSZQDf6YkAcoKmVsNp95l4mBbgDeDJDqHaMn1U+xhrBrnxMS89vZF2x/o2AeTgeR7LajrBIJ8IfXagdvgqTZ65Gq7DCRTk9AbR62FRkNOb0KOorpPrhyrsSFnEtTfyL8eDBh5jOfeuH6qQ41T0RNobwxblsIFOzube9UMVcqiYpcRRwnmZZMTcu36owo0kwip5PidbcYh5d/1QhRv3ncgIpIKxmaEQ1xunwPKmI3evaJI2Tv7y3nrCjkzaC0uYGUpEyi00IsKOPWumQMKKkOa+QCjCUsTUSYulzQzlKFACot/J2phQo/REkQKMGU0fdqJP+otw1DsC4P5H2XCAu9SPaug6BQoPgs5X2Fzdj76943+5bwktcL2/Ja6V2oIFo/DyLNnUaal7/pf7lrBiiiDqKsQWZAKi8VD/y31L6LGUEyjqHJD9UPle79ADt8xlCFQ96CYeZQ0r0p0kH3yq6pkuRGO2Wlw6oeGdkpYWeuBnOSIJS7YfgeZUl0QODlokk1CtFZ3xsxyRhIj1sM12htJmhqKmjHEdU0pHgzS21iY/yxEJRmA2RyRkpc1O8vR0jhKIzREJmYn0CSYzkf4G0xdXGcsnLK6OqkBgHcxs7bhFAkaOW3r+wzpP09h/ckQSUo7hMTUXybb1AV6J+BtbfMlNpt/SbZRwzXLD77c08fXKzbjf0t6M8bBZMNQ09s/cPfM9qMXqG6qo9g7jegOkJ+dTZ84xd/zejbjfUqM0lGNqAC3g6qQkHGWXFkQtVqDgBDBEoC8zdwLHQCLShXJ1NLcLu52Rh6XjlmZVMVW7vo+SmQMaQAsKrTf9RMQTtVgVVZTc91nWBajEWm5ynusD1epodnSvTKLU2ztUXISN45ZOoap3aIjmIjx0eU0hYzgGCLgW60eKnQwMO2VWjGGXB1erVkczNx8Z/qYDj+f64uJqTN234vAKmAF4QI321E2m39ITYnCBKxG1bAc6lxRrHIY+wIa8tooJlD5I4k4WsxujaVJpcef60ktMqV35W2k5vFSKHQqA17pMWcwNpt/SssZhiM70XlNMcV8fOMo71kQBCVWKmKUYTVeKqfdzfbEBTT1bq/IP/usewFucXC69dj3kGDZNkG4o/ZY2QxwD564VO3hXwbuApM8WbMf5yPMi87fXCXOKJfjHfAk+OYvFiMD1JiTmbQfO/IU+WRdnms0A9JDhFVfkFlBiHooOKrf7FXXeMMbjjgav3X5L28ATIGSQVlgBx0R3qjDigPTeE7THsZIS3RN8ri+8FzODH3XDxwtY03TSLpXAbv8IJbR/gBElYo2QgOpJhrT+bzfonCURSlBHg9duv6WtsLDHUt0KznAsLXTNdiICpFNU+kBFke61hZ7rSx8FfTiruEA3oz0j0EHeTXLNKfM2nqgjl4JKcsktNl22Y18fM8BOUWeAb2VQOf+A4ylUAvrQqq7dfkvbgLpNObPt2O7At5qdvEMaRHJBEOmpevJKn2Kx5/qyH0IfSzyc3cRxRBEsQeFs5R3sym85xYd9t+ZT4B/gBTDSCwZs4azkkncZ9ie4JwaYAbjqJXXuOu63NPlE11qlWif1qV0t1grUWkWzQEjHOnKIyD483Oik9m+IR1z+9ixqzwJm9kovuq4z8sbVoI7XEu6GyEx5wId9lwYtYprMAGxDL2UB2YNvPWTUSZtiklUKsKNBf6vpw8OFE33zD6ihuHN98cwMy071CvhmHfFFXrFcK74knmBJr5B8tG46M49miqUQH7ot3KYTNwRKCaVUr25TMZq2s6e4c30x5ahILk4T7LOPMOSPmki69OxiYoKED/uuvOdiOT3nRFqsAxWc+NF6rDK9J6iVBOZ+hzoaDPx6fOshjh2vqUkcCzrXF6LJ4TwQjl+momn7CNq9fJoIkBI9hv4BvjwnI9wWMvxDKZ1apgDaJRMdDerFDRflo6CPo4ZbH8QdXHNOTSftQvkHeC7d5JnIIKUtzibGJqonwaq4GXFzjJv7v1sw//pVCJfmX78K4bJj7vWrQGu99wbx54+QSXVrQ9mPkEmAVw3IhTA2LW5ib2so9BEyWbjMl0C6AE51ujvArjbToEvcdqk5w6g4czEtqNw9UJm/eN4u1RHHE+qgKO3+oKpUDT1cpIOKVs89D2PCVnWksYYyRf3JOxNu28wtvb1vl+pI12SdsywK3i10OZEgOatg3SDxNE5tAAFzMtC2qtcKyPpXWU/yLZsT/WlsIm671Azqx2QJ3EN/BAw8MqQM4ifX+PAo/weAsFV9D6jJ2BR1K5aj+Nv2RGJtBW6XmkWl+Ip5sgC5PUNny18LPIZAaNLCFrNSkhw4dTCQtbfyBtS/Mmrpf8vmvC4shQRtl4onKn3MjA+KEtV36RQjeYeOoFIjAjx24h2u00WZoh7NbQpYHyETodul5gwKz0NijZGbsAIiwqUB0mh1jbL2LQtQHyETYdul2uE8LYiDomwCHkHlogl4Ak0j9RSzDszV0t+2ybX9plICtkt1MMgxOh7p6bsmOIGG8TINqsGlX2lLmKJ+y5oA9xEyEbddavKotiFVhSoRz2OkJnFKnHxDDS47JFRDywK1Pt1JxJdcfJ7f1S+5zf9tBWl1W8HbTEJquUfOSC33yBn95B6Z1orc5r9bFq2Rmgapae5Zs05qRnvW8q2+SWqMPWtWSQ1TmnLP2vX4yvesXe/C5Z6168lqkJotUrNCaUqmNDmpae1Z+7xB1LfAfp5H2h338jYNfU5R6DNQik67pxNMYNzpRdkVrXMsGeJOD0cCpBNhSRMRZJ9vt2txIUik3hgH2e8q6B8hfB1xXkrPPRw3Hn4qnAkKZCohkmIcof9poNwLb7roJfyz+/l57TOhzlR/wcY60mPGc4wFHCj29RF1xiNvpzxofDx2AR09T1zonGuQ+4Q7JSXrZGWFDt6Oc8afKZvoi14i5jCS1bykRp2hji3aXAgSHBepfqoC3Zh3IJ8GbA64JXFwDrD7hFjKbo3dKrRS8Ggqlis5SNRFL1Ey83bj5+b13oU8J+2+qNdpw/hCkNgTix4+Rjf4GQiOMAd8Q3LCkDMg4LViw6weQW4VbvWK36ZsuJ/SF73EwZy9Ps9Q5yodWbS5ECRG4hGyJoq7vGF7VFNAT8BJmo6azWEpTjxyq5CXmfVhv+bJirpwJTrhucoa465IcRCbDASsTePxv8pq4jzig/WheCSp0CtYZvYY6uSrliRgJnRgK2HKWx3EUxeuxLyliTyddJqcy7d3ZZsLQYKzGz8ressSttSPXpfMnN09FzvneVh7HlkCbCrhWJMgtwqfMTilu6xe0njRS1Rz8+ER7lhPxG5qCYhjrUMnW+fVy6gfI54ZSnLwy4foBxp+UFICySE6eSVGIxUUmLhwJRB78npOUmOC5DNcSr6GPNY6bAo40uITZHfGWBIzcYR2DQdmlxqkeGRHIT1rzRe9BFuekxiooEJUYq/1/RUryLab8nVOg5HNF9c6rV10VkdzSWoMUjOjNEOmNJWPSOMX3QjZ03nOLWMx3tqofcNwRhiSEsWe28uxWxuGXwgionPWIrdaZj4hYUdBQ7zN0mCfkInzWE+AUY/PhatxOCMcpnAuMVdzkKI6l3u31y0jn7Alj/tWAW3qLAiTNcoCO5EiJ5AUpWReSppBJFzc2nMwEt/qf4FRKXgFOey1wyZdKM/LlML56M1MsukTnNDR+lHkLLwVMdQYRhwja1L6nLkSQTeOsphJRF3c2ksjiZoRkeOC8F7g4r3frqJMyizTg7b539ecunZcfQK4LZ/wgYinSci3hW2UcdMYRvBYUUBpPKRhNhF0cWsvkaBedyQnTWP/d75bKoHA8BJHKFvwTmvfjgmsOtt25LVga7BP2Gu8O4RamBrDiMNHQZlFsaCW2bOK2Itbiwc5C7rtQQ5VLa7B0KFUYMsW8DALPblt5xXdkLoG//x7z2St6SpCA+mPmszS0JkHsLb9NBBnsJY6XXaOB6W/ImtRj+PdSUqvH34Bshb7R2/TTKrpBCfbSaZPouVg9hF5cWspO/srGZQAD86kaYgZ8hhR8jRb2YBhftrAgrcTwk6PoOMQ5SWoIp0z4x98Y+JU05ZrIh4eVqwWlx6zxLxhk8nL8Gm6UAJy85XXgmyT/WOwtYfs0zSNYQTFkaz9zCP04tYmDe3sR2576JKDyqLV5DwTzBzLGlhPa1dyJ7Aua8UpIv/8aVvEq+iIk3OSEtGLx1CDY8tqvhQJCD3NPAJNA/Qj5hR4x5ZvSFqmAV4TWiTUGEas8BhGpJdKEDbVPRk/swi9uLWEnf0HlVgG0ga4cnlOwB340NRyFcBOD6x2q2YsMZEMdQqbEWOkwOBh0FpTGEGX4ROsj11dB16DfQPvaxGJUURI8BhGnBFjGJE0fBn6mUieUQRf3FrCzn6EOWvysL9wKCUaJwHIg+PzBeapn2hxvneM8m00BEGO4wL95LUSkt9xdkwQjaITih3610hw9qsCvJZCLqzKnehXDXCaNI1hhBwhQVn9ZDmZScRf3NpDXG5ikK8oAdIJSp6kiM4D9sTGQFR1rvTKyj2QNyZRr0j4xwJvViYLIwEOIsJWDPrn2TkCqhb1zLDpH7DvnJ70JMX75jGMGKwtGrztrGwxg0i5uLXIzn4CPHi1bSeMc2OjNjLBT0merAuAWyXe04HhWadNmWKAxjTFE9Kx7iCygPm9WNZYMcjLnljyfQ0cPq3CGZKi4BywFRNk7dtBxsWttaazf2LDnC2a/tgtsADJ+4ywkliBfPMvoL0f2dPFn4WSwWzgJY+WFcN5z6fq71LLr6Wx1tPuazdPfz+xNdudJLgajBPwLm6tTVI93JwjmsvT6iBnJDEltp1//udZ7bYDH4klxkMLzymbpqTtdPm07P65OoMYrhFCBEzYNFf2+R/rIrO65yuUpsmUpiY1M0oz5FCsKuYEo9DEomj0C8nQpW8mmjmBEXKMCoyBFgquDy5maCHnFUMOOcRTgF0J8UJCaTzPK0ZhCy+Fmzq/Cs/U8xI1jragf63nHo+lVlIao6EMjJhPO1HUVpMRupyuyXBx0OXWccyDZHIcbV2tMGc9ZDEMetqyU22o0dWKiv5gcLWSGhxmgCFi7buuSwAgYSclV/IKh4sfIa/xrFjO0IU9hHjgcSLuaYsIO4/MB+pqK2kUaoDvIEQtG4Mcr0xs1mS4OIqMkoDH0RZxwkAS6mlLG2p0taID8L29dIesjgyMYdRUuDgBcc0kIEpIh3raMtToakWnVdXgsKWSY6bCxRvA42jbBOxcMGlDjK6WwkahCxuxvI0nIFy8CezCXhOopy1tCAMjFLYSfuTUxDa6hDu/agL2qZXLJvBw2BpidLXUNeTwgxlTePROqSFcnOheCweYe2bfEK8+gLBz2sAIRW2aUFn9khVKM2JKY1CaIVOagtTMKM2IKc0WpWkypSkozZApTUFphkxpakoznFGaEVOaGQCf7WqRg8oE3i1/suuF5OBFXR8D9zjze7teSQ5e3vVhx7FA8NauITl4Z9fb4N3yS7s+Sw7irlc7rKoA8uenqWBNDF416XqKw6oKIPGerg8Sg7jrXc63cDonryUF5yZdr4B4y3xgevjphODpsYux7g4D6+ajFRmoYhe3RxhQvMXSEIEqmzg/PpyBelmfML2s+Okk4Onm9lMvtnUU1gu78Flzc44AvPxzk66Lif0wAP/HYy5Vh3z1hybmGDgNA64ZTcwRv7WuQrpnjIe7Jcz3X+NmBSywBz8xsYaIHJqF0lygTewif1lm3w/m99M7JlQQ739a5tQPZrzyEyTgw3Pn7WjARnFAA/dc9oM5mqL66Ciku1i+O+273/UW7EFRF09N/Dosjzn3CztxbC0LjriCw09sXR4YhishCD87CQoph6KYtYJBzWEp6iCwwRyemtL/C7E1CGwUw1mowmnl6xKblsJGseDwFdOEMMa+qKvuTDls1gagUlTRLnL7P8mPwilFEu00z5zistXgftojjF2Rm8VwJZwfK0tqaJfAl9gbSThswf8x9yw4T3aRENpp6VoJZgDmzYQKWvayyjSHVOVkKcq3//BP/dg/fYam676tJf/cfT8h7cu3pl/ER72dvptyK2b/7hdU+kn6R+vvb8mn+u8Jad91e9p03PD2vpRVq3PyWa1/5DvMz/zQF2aUo4xfRpYJuFHnOb/lF1R2/atawfeb/7jO+T3B33wtf+PLn5jHmmX+4R98D1jn7XuavzHb7nv+GqwCbLt/+sx6+fT0yTcv8/KzRsn++Ny7+Q38r5mv2RTKPOdf/5z+SQPyotaf6jr96F9DPgtU/LT+oaen/6RVWtf8vBLwCcXXP/2R7/2GHeqff/zZ71v8w/sfqwV/2j38/X9Y6u4HjH3/mVtA8FLu9XRWAH5LebzzDV2nH14q9I/8vdX67yD17YdqGYpO//jiH74PSvnb9/o9Rf+xet3H3//07Su18F9oxaounZf6e5WgvzvfSgqOW24IqRar0kDf/AOgkKz5gVrFD+j3f12jlul1rv68VfxPPfzd8qlGiTBaf5FAP67q9NWfePqxT55Abld88qRQC/Rv/NAtINBcQIJ0lLvz+e98r9/XPIIiUa8UX9Z6Db4df6xeCr4hw6csSL6uUXr6dAnLV8UjQMkw5+DyY4fCK2YjtQY86e9QzgbFJbhbar2s8fpHlLjv/Aerf6wNH+s1/mr8CPDNnOc9Qgc1/nPyw3r42nLxKbjTZlnffvzpvf54/bn3evi25Te0/rn103ebz6i8T/BdxMSPGvDmeCn92ffNnONpeHa5982YlLrziYbp+56QgId///Sx1vqL36tR+om1BukHIEut+5p/WtTpr5fa/M3Xl59+Ui/eh888LT99+LsGvudHvt7uH9Y4hGmVRzmzWnc+/w8PWt9/71ONqd/v4/dwvXD19J0/qlR8o55kW1NvZf74/m/Bcj48Pd2DtHr6ci3u4XuV/I+VANZ///Txf675lp8G8/Sjf9vqUdtioWC5Huw7rX7dtsVeiu22UdnqqX3armgBTXov4lH0r6+Ywn/VrYtzrc0sVAisD+E7ctW3Ov+X/2JmuWgaKkzcFIpsLf3/QwtWq+1VJzcNFSpuhqxM5DRzTTdg/R5zWvrCHg7iJ2GW/isz4uOo14pkgVM85Zt+ix++UT025u7p6Xayfgi+qm7yLFX/kDgC+pmSkRESdtPmJxXJpssh1PLHZxwWohj6ym+4tMgBLjA2Qsaus3p596Gk6vnD7DA7djGB9TubPiItQDyU2wxPIQ8tRrnU8RYzJpcweqM8EV42Hy1mh+gmpsIGTYbrvcXqIRqK1Fj0lvt5njjM7kmS5NX+slhMZ4foKtJu8G2XxHMpLZYA;" vertex="1" parent="16">
                    <mxGeometry x="460" y="90" width="320" height="470.71" as="geometry"/>
                </mxCell>
            </root>
        </mxGraphModel>
    </diagram>
</mxfile>